# xmcd
#
# Track frame offsets:
#	150
#	18487
#	37049
#	53886
#	70611
#	89698
#	107585
#	126597
#	142459
#	159484
#	174446
#	190833
#	205008
#	220495
#	239207
#	256044
#	274456
#	289268
#	307155
#	324555
#
# Disc length: 4546 seconds
#
# Revision: 1
# Processed by: cddbd v1.5.2PL0 Copyright (c) Steve Scherf et al.
# Submitted via: audiograbber 1.83.01
#
DISCID=4511c014
DTITLE=Various Artist - Promo Only January 2008 Rhythm
DYEAR=2008
DGENRE=Rhythm
TTITLE0=Snoop Dogg - Sensual Seduction
TTITLE1=Alicia Keys - Like you'll Never See Me Again
TTITLE2=50 Cent f./Akon - Still Will
TTITLE3=Natasha Bedingfield f./Sean Kingston - Love Like This
TTITLE4=Glassess Malone f./Akon - Certified
TTITLE5=Kanye West f./Dwele - Flashing Lights
TTITLE6=Chris Brown - With You (Main)
TTITLE7=Britney Spears - Piece Of Me (Album Version)
TTITLE8=Chingy f./Amerie - Fly Like Me
TTITLE9=Amy Winehouse - F*** Me Pumps
TTITLE10=Gemini - Hypnotized
TTITLE11=Plies f./Akon - Hypnotized
TTITLE12=Rick Ross f. R. Kelly - Speedin'
TTITLE13=Dear Jayne - Rain
TTITLE14=Tyra B - Givin' Me A Rush (Main Version)
TTITLE15=Backstreet Boys - Helpless When She Smiles
TTITLE16=Meech - Thicka Than A Snicka (Album Version)
TTITLE17=Lupe Fiasco f./Matt Santos - SuperStar
TTITLE18=Enur f./Natasja - Calabria
TTITLE19=J. Holiday - Suffocate (Main)
EXTD=
EXTT0=
EXTT1=
EXTT2=
EXTT3=
EXTT4=
EXTT5=
EXTT6=
EXTT7=
EXTT8=
EXTT9=
EXTT10=
EXTT11=
EXTT12=
EXTT13=
EXTT14=
EXTT15=
EXTT16=
EXTT17=
EXTT18=
EXTT19=
PLAYORDER=
